<svg xmlns="http://www.w3.org/2000/svg" width="12" height="15" viewBox="0 0 12 15">
  <defs>
    <style>
      .cls-1 {
        fill: #00ffd7;
        fill-rule: evenodd;
      }
    </style>
  </defs>
  <path data-name="иконка геолокация" class="cls-1" d="M1352.79,4354a6.021,6.021,0,0,0-5.76,5.4,5.788,5.788,0,0,0,.08,1.72h0s0.01,0.06.04,0.18a5.742,5.742,0,0,0,.4,1.19,17.214,17.214,0,0,0,5.12,6.38,0.514,0.514,0,0,0,.66,0,17.435,17.435,0,0,0,5.12-6.38,5.948,5.948,0,0,0,.4-1.19c0.03-.12.04-0.19,0.04-0.19h0A5.974,5.974,0,0,0,1352.79,4354Zm0.21,8.96a2.91,2.91,0,1,1,2.91-2.91A2.921,2.921,0,0,1,1353,4362.96Z" transform="translate(-1347 -4354)"/>
</svg>
